<?xml version="1.0" encoding="UTF-8"?>
<svg id="Layer_1" xmlns="http://www.w3.org/2000/svg" version="1.1" viewBox="0 0 70 45.1">
  <!-- Generator: Adobe Illustrator 29.0.1, SVG Export Plug-In . SVG Version: 2.1.0 Build 192)  -->
  <defs>
    <style>
      .st0 {
        fill: #e4c285;
      }

      .st1 {
        font-family: Chivo-ExtraLight, Chivo;
        font-weight: 200;
      }

      .st1, .st2, .st3 {
        isolation: isolate;
      }

      .st1, .st3 {
        fill: #e6c183;
        font-size: 3.3px;
      }

      .st3 {
        font-family: Chivo-Medium, Chivo;
        font-weight: 500;
      }

      .st4 {
        stroke: #d3a95f;
        stroke-miterlimit: 10;
        stroke-width: .1px;
      }

      .st4, .st5 {
        fill: #eaca89;
      }
    </style>
  </defs>
  <g>
    <g>
      <path class="st0" d="M19,31v-3.7h-7.1v3.7c0,1.2.3,1.5,1.5,1.6v.6h-4.6v-.6c1.2,0,1.5-.4,1.5-1.6v-8.7c0-1.2-.3-1.5-1.5-1.6v-.6h4.6l-.2.6c-1,.1-1.4.4-1.4,1.6v4h7.2v-4c0-1.2-.3-1.5-1.5-1.6v-.6h4.6v.6c-1.2.1-1.5.4-1.5,1.6v8.7c0,1.2.3,1.5,1.5,1.6v.6h-4.6v-.6c1.2-.1,1.5-.4,1.5-1.6Z"/>
      <path class="st0" d="M33.3,20.7v-.6h4.7v.6c-1.1.1-1.3.6-.8,2l3.6,8.9,3.6-8.9c.5-1.2.3-1.9-.9-2v-.6h4.3l-.2.6c-1,.1-1.3.6-1.9,1.8l-4.4,10.3-1.5.7-4.7-11c-.4-1.4-.8-1.7-1.8-1.8Z"/>
      <path class="st0" d="M50.3,22.6v8.4c0,1.2.3,1.5,1.5,1.6v.6h-4.3v-.6c1.2,0,1.5-.4,1.5-1.6v-8.7c0-1.2-.3-1.5-1.5-1.6v-.6h2.8l8.1,9.6v-7.5c0-1.2-.3-1.5-1.5-1.6v-.6h4.3v.6c-1.2.1-1.5.4-1.5,1.6v10.8c0,0-.5.2-.5.2l-8.9-10.6Z"/>
    </g>
    <g>
      <polygon class="st0" points="23.1 33.2 24.5 33.2 26.1 29.1 25 28.8 23.1 33.2"/>
      <path class="st0" d="M30.1,20.1h-1.3c-.7,1.5-1.4,3.1-2.1,4.7-.3.7-.6,1.5-.9,2.2-.1.2-.4.8-.7.8,1.2-.2,8.2,5.4,8.2,5.4h2.4l-5.6-13.1ZM30.1,29.9s-2.6-2-3.3-2.3l2-4.9,2.5,5.7h-2.4l.9.9h1.8l1.1,2.5c0,0-1.8-1-2.6-1.9Z"/>
    </g>
  </g>
  <g>
    <path class="st5" d="M32.5,4.5s-5.3,2.2-5,8.4c0,0,3.5-2.4,7.7,1.8,0,0,5.3,5.4,7,0,0,0,2-6.9-4.8-10.2,0,0,4.7,3.6,3.9,8.7,0,0-.4,4.5-3.7,1.7,0,0,3.1-.1,2.5-3.9,0,0,0,3.3-3.8,2.8,0,0-3.7-3.8-7.7-2.2,0,.2,0-4.4,3.9-7.1Z"/>
    <path class="st5" d="M34.9,1.9c0,.8-.8,1.5-1.3,2.1-1.2,1.4-2.4,3-2.5,4.9,0,.6.1,1.2.3,1.8h1c0,.1-1.1-2.1,1.1-4.9,0,0,1.3-1.7,1.4-1.9.6.7,1.2,1.5,1.8,2.2.5.7.9,1.6,1.1,2.5.2,1.4-.3,2.9-1.2,4,0,.1-.3.3-.4.4h.2c.2-.1.4-.1.6-.3.4-.2.7-.5.9-.9.5-.7.9-1.7.9-2.6s-.2-1.7-.5-2.5c-.4-.8-.9-1.4-1.5-2.1-.3-.4-.6-.8-.9-1.2-.2-.3-.5-.7-.7-1,0,0-.4-.3-.3-.5Z"/>
    <rect class="st4" x="33.9" y="7.8" width=".8" height=".9"/>
    <rect class="st4" x="35.2" y="7.8" width=".8" height=".9"/>
    <rect class="st4" x="33.9" y="9.1" width=".8" height=".9"/>
    <rect class="st4" x="35.2" y="9.1" width=".8" height=".9"/>
  </g>
  <g class="st2">
    <text class="st1" transform="translate(8.3 36.3)"><tspan x="0" y="0">Direct Bookings. Less commission. </tspan></text>
    <text class="st3" transform="translate(23.2 40.3)"><tspan x="0" y="0">More revenue.</tspan></text>
  </g>
</svg>